<?xml version="1.0" encoding="UTF-8" standalone="no"?>
<svg
   id="Default"
   viewBox="0 0 217.2 217.8456"
   version="1.1"
   width="217.2"
   height="217.8456"
   xmlns="http://www.w3.org/2000/svg"
   xmlns:svg="http://www.w3.org/2000/svg"
   xmlns:rdf="http://www.w3.org/1999/02/22-rdf-syntax-ns#"
   xmlns:cc="http://creativecommons.org/ns#"
   xmlns:dc="http://purl.org/dc/elements/1.1/">
  <defs
     id="defs1656">
    <style
       id="style1651">.cls-1{fill:none;}.cls-2{clip-path:url(#clip-path);}.cls-3{fill:red;}</style>
    <clipPath
       id="clip-path">
      <rect
         class="cls-1"
         x="50"
         y="50"
         width="700"
         height="700"
         id="rect1653" />
    </clipPath>
  </defs>
  <title
     id="title1658">Final-Social Media KitSocial media profile</title>
  <rect
     class="cls-1"
     width="800"
     height="800"
     id="rect1660"
     x="-57.81797"
     y="-52.905376" />
  <g
     class="cls-2"
     clip-path="url(#clip-path)"
     id="g1722"
     transform="translate(-57.817968,-52.905375)">
    <g
       class="cls-2"
       clip-path="url(#clip-path)"
       id="g1720">
      <path
         class="cls-3"
         d="m 256.50794,201.13537 c 2.87,-6.26 5.87,-13.73 7.06,-17.25 a 51.25,51.25 0 0 0 2.42,-14.69 c 0.81,-14.65 -3.66,-27.77 -8,-40.55 0,0 -0.9,-2.66 -2,-7.25 l -3.79,0.94 c 0.31,1.37 0.69,2.83 1.13,4.37 a 37.61,37.61 0 0 1 1.52,10.73 c -0.05,3.74 -0.69,4 -0.89,4.08 -0.68,0.15 -1.62,-1.54 -1.89,-2 a 15.29,15.29 0 0 1 -1.69,-8.11 46.23,46.23 0 0 0 -0.34,-8.49 q -2.67,0.72 -4.95,1.41 a 26.23,26.23 0 0 1 2.49,7.34 c 0.07,0.39 0.12,0.73 0.15,1 a 5.32,5.32 0 0 1 0.05,0.75 c 0,1.2 -0.29,1.55 -0.52,1.71 -0.62,0.34 -1.64,-0.24 -2.21,-0.72 a 2.38,2.38 0 0 1 -0.35,-0.36 l -1,0.21 c 0.38,0.53 0.75,1.07 1.16,1.67 0,0 0.89,1.3 5.55,8.55 3.15,4.93 6.43,13.22 6.46,27.92 a 37.61,37.61 0 0 1 -4.56,-13.07 35.4,35.4 0 0 1 -0.32,-7.51 30.83,30.83 0 0 0 -0.79,8.62 c 0,0.78 0.19,3.2 2,10 1.94,7.28 2.57,7.45 3.29,11.51 0.61,3.47 1.14,6.47 0.46,10.24 -1,5.25 -3.72,8.92 -5.66,11.51 -2.89,3.83 -3.71,3.36 -7.48,8.38 -0.25,0.32 -3.73,5 -4.31,8.19 0,0.08 -0.27,1.57 -0.65,3.6 -0.19,1 -0.27,1.55 -0.31,1.7 a 10.84,10.84 0 0 1 -2.71,4.76 c -5.7,6.61 -6.94,8.06 -9.65,9.81 -1.33,0.86 -3.14,2 -3.79,1.45 -0.85,-0.71 0.8,-3.9 0.92,-4.13 2.61,-5 8.26,-7.88 9.18,-8.34 a 13.19,13.19 0 0 0 2.9,-1.93 8.74,8.74 0 0 0 2.52,-3.24 8.54,8.54 0 0 0 0.68,-3.14 23.92,23.92 0 0 0 -0.18,-5.68 39.61,39.61 0 0 0 -1.13,-5.47 13,13 0 0 1 -0.48,5.18 14.14,14.14 0 0 1 -3.78,6 c -11.31,11.6 -12.15,12.65 -13.11,14.08 -1.24,1.89 -0.44,1.09 -4.7,8.89 -3.54,6.46 -4.37,7.52 -5.16,8.39 -2.71,3 -5.47,4.45 -9.41,6.46 a 34.62,34.62 0 0 1 -12.66,3.59 c -1.69,0.12 -3.31,0.08 -3.6,-0.63 -0.07,-0.16 -0.2,-0.72 1.55,-2.48 2.08,-2.08 3.18,-2.18 5.21,-3.84 a 10.82,10.82 0 0 0 3.73,-4.6 8.68,8.68 0 0 0 0.38,-4.47 6.1,6.1 0 0 1 -1.3,4.52 c -1.18,1.28 -2.49,1.12 -7.28,2.34 a 23.84,23.84 0 0 0 -5.84,1.89 17.27,17.27 0 0 0 -4.74,3.92 c -4.64,4.75 -11.91,6.61 -17.09,6.42 -3.09,-0.12 -8.52,-1.08 -9.13,-3.76 a 3.37,3.37 0 0 1 0.68,-2.55 12.73,12.73 0 0 1 -2.27,1.34 c -7.16,3.4 -15.33,-0.63 -17.21,-1.55 a 25.62,25.62 0 0 1 -5.49,-3.62 c 1.94,0.57 3.49,0.43 4,-0.35 0.31,-0.52 0.1,-1.21 -0.29,-2.07 a 14.26,14.26 0 0 0 -4.5,-5.29 c -4,-2.93 -6,-4.4 -6.86,-5.06 a 36.47,36.47 0 0 1 -7.8,-9.42 46,46 0 0 1 -3.89,-7.78 24.34,24.34 0 0 0 1.11,5.34 c 1.66,5 4.22,7 7.95,14.11 2.43,4.59 2.27,5.46 2,5.73 -0.53,0.48 -2,-0.32 -4.08,-1.48 a 23.84,23.84 0 0 1 -6.09,-4.66 10.07,10.07 0 0 1 -2.51,-3.75 9,9 0 0 1 -0.46,-3.06 3.25,3.25 0 0 1 -1.35,2.2 c -1.51,0.94 -3.480004,-0.17 -4.070004,-0.51 -1.11,-0.61 -2.65,-1.91 -3.75,-5.3 -1.05,-3.13 -0.62,-4.73 -0.6,-11.08 0,-5.5 0,-8.3 -0.77,-10.15 -1.31,-3 -2.61,-2.81 -5.19,-7.18 a 24.49,24.49 0 0 1 -3,-7.25 20.75,20.75 0 0 1 0.46,-10.28 c -2.51,5.06 -2.48,8.73 -2,11.19 0.33,1.5 0.6,1.45 1.81,5.56 a 23.3,23.3 0 0 1 1.16,8.73 c -0.19,2.27 -0.65,2.77 -1,2.92 -1,0.39 -2.46,-1.07 -3,-1.62 -4,-4.11 -4.54,-12.23 -4.59,-13.27 -0.59,-11.09 2.56,-23.42 7.05,-27.95 a 12.92,12.92 0 0 0 2.59,-3.7 13.67,13.67 0 0 0 1.18,-6.64 c -0.25,-5.07 -2.68,-6.19 -3.56,-10.87 a 16.37,16.37 0 0 1 -0.16,-4.86 l -0.32,-0.68 c -0.16,0.56 -0.31,1.16 -0.43,1.79 -0.41,2.15 -0.48,4 -0.26,12.3 0.12,4.25 0.21,6.07 -1.09,7.83 -0.82,1.11 -1.36,1.09 -3.05,2.39 a 20.91,20.91 0 0 0 -6.07,7.76 18.44,18.44 0 0 0 -1.44,8.22 16.72,16.72 0 0 1 -0.54,-3.17 c -0.17,-2 0,-4.26 1.65,-9.45 1.57,-5 1.91,-4.56 2.39,-7 0.39,-2 0.44,-3.61 0.26,-8 -0.38,-9 -0.87,-8.21 -0.65,-10.24 a 18.66,18.66 0 0 1 4.3,-9.66 48.32,48.32 0 0 1 -5.73,-9.58 24.73,24.73 0 0 0 -2.21,9.4 18.9,18.9 0 0 0 -3.15,-3.79 23.89,23.89 0 0 0 -2.46,-1.91 c -1.41,-1.13 -2.91,-3.41 -3.12,-8.58 a 19.82,19.82 0 0 0 -0.22,9.59 30.32,30.32 0 0 0 2.51,6.24 c 2.21,4.71 2.91,4.79 3.82,7.32 a 21.09,21.09 0 0 1 0.83,9.91 c -0.41,3.51 -1.21,4.09 -3.1,10 -2.27,7 -3.41,10.49 -2.85,14.5 0.34,2.42 0.9,2.44 4.4,9.45 5.48,11 3.69,10.26 7.51,17.15 a 47.54,47.54 0 0 1 3.82,10.22 c 0.32,1.26 0.65,2.78 0.25,3 -0.12,0.05 -0.52,0.12 -2.45,-2.45 a 38.71,38.71 0 0 1 -3.82,-6.16 c -1.9,-4.06 -2.89,-7 -3.43,-8.41 -2.58,-6.66 -6.43,-8.64 -9,-12.49 -2,-3.05 -3.57,-7.76 -2.51,-15.34 -2.54,12.83 -1.17,18.8 0.7,21.84 2.9,4.67 5,7.91 5,7.91 a 82,82 0 0 1 5,7.71 41.55,41.55 0 0 1 3.21,8.55 c 2.47,8.51 4.47,15.37 9.41,20.68 a 30.17,30.17 0 0 0 15.63,8.73 c 9.090004,1.76 11.260004,1.9 11.260004,1.9 2,0.11 5.41,0.22 7.81,2.42 0.46,0.42 1.43,1.33 1.26,2.33 -0.17,1.15 -1.69,1.75 -2.23,2 -2.66,1 -5.41,-0.27 -6.35,-0.79 a 16,16 0 0 0 3.69,4.18 c 1.55,1.23 2.88,2.31 4.65,2.58 4,0.58 5.46,-3.7 10.24,-3.74 1.33,0 2.8,0.58 5.73,1.8 5.31,2.16 5.07,3.2 8.36,4.26 a 21.81,21.81 0 0 0 11.74,0.1 25.73,25.73 0 0 0 5.22,-1.81 35.52,35.52 0 0 0 4.4,1 37.52,37.52 0 0 0 10.2,0.09 78.24,78.24 0 0 0 21.17,-4.63 c 2.85,-1 2.6,-1.14 5.31,-2.1 a 67.8,67.8 0 0 1 15.25,-3.43 5.06,5.06 0 0 1 -2.73,-0.44 2,2 0 0 1 -1.08,-0.85 2.58,2.58 0 0 1 0.4,-2.2 c 2.5,-4.37 15.54,-9 15.54,-9 6.53,-2.33 10.59,-6 18.73,-13.3 4.88,-4.37 14,-14.39 18.35,-34.75 a 39.76,39.76 0 0 1 -6.12,11.75 c -1.09,1.43 -3.28,4.3 -4.33,3.84 -1.05,-0.46 -0.45,-4.59 -0.16,-6.21 a 28.47,28.47 0 0 1 2,-6.79 m -1.55,-84.07 c -0.19,-0.9 -0.38,-1.86 -0.57,-2.85 -1.75,-9.33 -1.46,-13.3 0.52,-14.459995 a 2.83,2.83 0 0 1 1.41,-0.36 4.21,4.21 0 0 0 -2.33,0.46 c -2.14,1.109995 -2.87,3.999995 -3.14,7.639995 a 45.19,45.19 0 0 0 0.34,9.52 l 3.77,0.05 m -8.57,-9.89 c -2.78,-7.559995 -5.4,-7.289995 -10.78,-18.999995 a 101.79,101.79 0 0 1 -4.13,-10.52 84.27,84.27 0 0 1 3,14.46 c 0.39,3.31 0.37,5 0.88,8.289995 a 64.28,64.28 0 0 0 3.11,12.29 137.46,137.46 0 0 0 -12.28,-15.999995 c -5.8,-6.47 -8.7,-9.69 -12.24,-11 -1.46,-0.53 -3.17,-0.94 -4.33,-2.52 -2,-2.72 -0.92,-6.91 0.33,-10 a 20.33,20.33 0 0 0 -1.88,14.68 8.69,8.69 0 0 0 -1.62,-2.52 10.54,10.54 0 0 0 -6.35,-2.82 c -7.59,-1.12 -8.41,0.11 -12.42,-0.87 a 20.65,20.65 0 0 1 -11.32,-7.54 18.88,18.88 0 0 1 -2.48,-4.62 7.56,7.56 0 0 1 -1.69,4.83 c -1.84,2.08 -4.64,2.28 -6.58,2.39 -1.26,0 -19.84,-0.36 -19.84,-0.36 a 52.1,52.1 0 0 0 -28.42,10.82 c -4.72,3.62 -7,5.8 -8.15,7.22 -0.23,0.27 -1,1.24 -1.54,1.05 -0.54,-0.19 -0.53,-1 -0.68,-2.55 -0.19,-1.74 -0.07,-2.56 -0.72,-3.37 a 3,3 0 0 0 -0.63,-0.54 c -1.94,-1.3 -6.810004,1.28 -7.080004,1.43 0.29,-0.12 2.440004,-1 3.620004,0 0.78,0.66 0.77,1.86 0.68,2.95 a 21.07,21.07 0 0 1 -0.48,3 c 1.95,1.45 4,2.87 6.06,4.229995 0.61,-0.849995 1.38,-1.919995 2.35,-3.239995 2.8,-3.75 7,-9.4 14.44,-13.46 a 42.6,42.6 0 0 1 17.6,-4.65 18.77,18.77 0 0 1 2.78,0 c 5.17,0.56 7.23,3.25 10,2.2 0.46,-0.17 0.45,-0.26 2.27,-1.16 1.5,-0.75 2.66,-1.25 2.78,-1.3 3.64,-1.53 9.66,-0.56 10,-0.51 2.91,0.49 2.81,0.9 7.5,2.27 5.51,1.58 10.75,3.1 16.89,3.1 a 7.08,7.08 0 0 1 2.52,0.19 c 3.66,1.19 6.09,6.53 7.19,8.94 0.51,1.09 1,2.4 2.15,2.64 0.76,0.17 1.16,-0.32 2.57,-1 a 9.78,9.78 0 0 1 5.58,-1 6.26,6.26 0 0 1 2.9,1.55 c 4.55,4.929995 8.48,8.739995 11.26,11.329995 a 146.72,146.72 0 0 1 10.85,10.71 c 0.75,-0.07 1.52,-0.12 2.3,-0.17 1.83,-0.12 4.32,-0.17 6.76,-0.17 a 67.65,67.65 0 0 0 -2.65,-9.84"
         id="path1662" />
      <path
         class="cls-3"
         d="m 102.48794,234.26537 c -0.81,-0.26 -5.050004,-1.73 -6.090004,-5.3 -0.66,-2.28 0.16,-4.77 0.59,-6.05 0.64,-1.94 1.24,-2.32 1.78,-4.57 a 9.41,9.41 0 0 0 0.32,-4 c -0.25,-1.41 -0.7,-1.52 -1.68,-3.82 a 21.41,21.41 0 0 1 -1.5,-4.87 17.91,17.91 0 0 1 -0.18,-4.58 12.84,12.84 0 0 0 0.8,4.4 c 0.67,1.78 1.27,2.14 2.3,3.95 a 16.57,16.57 0 0 1 2.430004,7.9 c 0,1.91 -0.46,1.79 -0.68,5.08 a 27.24,27.24 0 0 0 0,4.95 23.39,23.39 0 0 0 1.88,6.95"
         id="path1664" />
      <path
         class="cls-3"
         d="m 79.677936,164.05537 c -2.29,-6.22 -2,-8.9 -1.11,-10.15 a 13.43,13.43 0 0 0 1.24,-2.16 10.76,10.76 0 0 0 1,-3.49 9.23,9.23 0 0 0 -1.2,-5.34 13.84,13.84 0 0 1 2.07,3.88 14.59,14.59 0 0 1 0.36,8.16 c -0.48,1.85 -0.93,1.94 -1.61,4.4 a 23.94,23.94 0 0 0 -0.78,4.66"
         id="path1666" />
      <path
         class="cls-3"
         d="m 65.387936,101.86537 c 1.37,3.46 0.64,7 -0.17,11 -0.7,3.42 -1.31,4.24 -1.2,6.73 a 8.28,8.28 0 0 0 2,5.5 c 0.29,0.29 1.36,1.4 2.07,1.1 0.71,-0.3 0.71,-2.27 0.62,-3.66 a 31,31 0 0 0 -1,-5.39 c -0.28,-1.46 -0.09,-1.35 -0.23,-7 -0.09,-3.7 -0.14,-5.57 -0.44,-6.49 a 11.18,11.18 0 0 0 -4.38,-5.909995 14.15,14.15 0 0 1 2.72,4.099995"
         id="path1668" />
      <path
         class="cls-3"
         d="m 162.21794,75.455375 a 9.58,9.58 0 0 0 6.21,-2.33 8.21,8.21 0 0 0 2.92,-4.95 c 0.51,-4.23 -3.73,-6.42 -3,-10 a 6.24,6.24 0 0 1 2.87,-3.66 3.42,3.42 0 0 0 -2,0.19 3.9,3.9 0 0 0 -1.88,1.84 c -1.22,2.17 -0.88,4.77 -0.71,6 0.22,1.74 0.67,2.81 0,3.81 -0.08,0.11 -0.55,0.78 -1.09,0.72 -0.54,-0.06 -0.63,-0.47 -1.26,-1.85 -1.27,-2.76 -1.37,-3.24 -1.39,-3.8 a 6.09,6.09 0 0 1 0.21,-1.81 5.31,5.31 0 0 0 -1.17,1.68 6.1,6.1 0 0 0 -0.06,4.24 c 0.47,1.54 0.94,1.27 1.46,2.78 a 7.86,7.86 0 0 1 0,5.05 7.09,7.09 0 0 1 -1.13,2"
         id="path1670" />
      <path
         class="cls-3"
         d="m 177.71794,65.395375 c 0.2,3.54 1.29,4.92 2.26,5.53 1.25,0.78 2.36,0.33 3.4,1.17 1.39,1.13 1.31,3.52 1,5.34 a 6.1,6.1 0 0 0 -1.49,-2.11 c -1.47,-1.32 -2.88,-1.17 -3.88,-1.81 -1,-0.64 -2.1,-2.61 -1.33,-8.12"
         id="path1672" />
      <path
         class="cls-3"
         d="m 233.66794,99.955375 a 29.37,29.37 0 0 0 -6.25,-12.88 c -1.92,-2.21 -3.72,-3.5 -5.11,-6.46 a 17.22,17.22 0 0 1 -1.36,-9.2 c -2.18,11.83 -0.14,16.56 2.36,18.62 a 47.9,47.9 0 0 1 6.07,4.78 34.24,34.24 0 0 1 4.29,5.14"
         id="path1674" />
      <path
         class="cls-3"
         d="m 251.18794,198.40537 a 8.48,8.48 0 0 1 -2.91,-5.3 c -0.22,-2.55 1.24,-4.19 2.23,-6.5 0.99,-2.31 1.77,-6 0.39,-11.5 a 36,36 0 0 1 1.84,8 36.66,36.66 0 0 1 -1.55,15.34"
         id="path1676" />
      <path
         class="cls-3"
         d="m 201.09794,256.59537 c 7.16,-3.6 9.63,-7.57 10.53,-10.58 1.25,-4.17 -0.27,-7.22 0.78,-14.8 a 46.27,46.27 0 0 1 1.89,-8.16 18.69,18.69 0 0 0 -3.11,5.34 18.94,18.94 0 0 0 -1.16,5.53 26.47,26.47 0 0 1 0.24,-10.77 13.93,13.93 0 0 0 0.59,-4.32 13.78,13.78 0 0 0 -1.27,-5.24 10.49,10.49 0 0 1 0.15,4.37 11.18,11.18 0 0 1 -1.85,4.22 c -3.3,5.25 -2.56,12.39 -2.23,15.53 0.41,3.87 1.17,3.66 1.21,6.26 0.1,5.37 -3.08,9.76 -5.77,12.62"
         id="path1678" />
      <path
         class="cls-3"
         d="m 216.57794,254.80537 a 4.1,4.1 0 0 0 -0.16,3.05 c 0.78,1.91 3.22,2.42 3.51,2.48 3.15,0.61 6.08,-1.92 10.1,-5.49 a 39.24,39.24 0 0 0 6.58,-6.82 c 1,-1.43 3.18,-4.07 7.5,-9.36 a 2.89,2.89 0 0 1 1.84,-1.19 2.64,2.64 0 0 1 1.74,0.48 3.76,3.76 0 0 0 -1.84,-0.82 c -3.48,-0.47 -5,5.1 -10.85,8.92 -2.13,1.39 -4.83,2.29 -10.23,4.09 -4,1.32 -7.08,2.07 -8.19,4.66"
         id="path1680" />
      <path
         class="cls-3"
         d="m 260.92794,200.08537 c -0.49,-0.2 -0.61,-1 -0.69,-1.51 a 5.63,5.63 0 0 1 0.25,-2.65 c 3.07,-8.28 3.8,-9.66 3.8,-9.66 4.48,-8.42 3.84,-10.19 7.79,-15.19 a 36.31,36.31 0 0 1 2.94,-3.3 23.28,23.28 0 0 0 -3.4,5.31 28.93,28.93 0 0 0 -1.74,5.27 c -0.94,3.65 -0.93,4.72 -1.65,8.25 -0.72,3.53 -2.05,8.8 -5,12 -0.44,0.49 -1.6,1.76 -2.34,1.46"
         id="path1682" />
      <path
         d="m 169.86794,248.94537 c -0.09,-10.47 -2,-20.4 -8.71,-28.91 l 0.52,-0.24 3.11,3.82 3.1,3.8 0.5,-0.17 c -1,-4.31 -1.84,-8.68 -3.08,-12.92 -2.35,-8 -6.34,-15 -13.15,-20.16 -5,-3.73 -10.68,-6 -16.46,-8.07 -7.15,-2.59 -14.32,-5.14 -20.94,-9 -10.35,-6 -18.200004,-14.51 -24.470004,-24.58 -0.67,-1.07 -1.3,-2.16 -1.94,-3.24 -0.09,-0.14 -0.14,-0.3 -0.41,-0.87 0.77,0.45 1.25,0.69 1.69,1 3.64,2.44 7.19,5 10.930004,7.31 a 37.7,37.7 0 0 0 27.13,5 c -1.9,-0.43 -3.79,-0.85 -5.68,-1.29 -9.71,-2.23 -19.1,-5.29 -27.580004,-10.66 a 47.27,47.27 0 0 1 -21.1,-28.5 2.22,2.22 0 0 1 -0.06,-0.93 c 7.59,10.43 17.72,14.76 30.810004,12.94 -2,-0.86 -3.67,-1.57 -5.330004,-2.33 -9.66,-4.42 -18,-10.45 -23.76,-19.59 a 56.4,56.4 0 0 1 -7.7,-21.839995 c -1.86,-12 -1.65,-24.16 -1.65,-36.61 a 6.26,6.26 0 0 1 0.66,0.9 c 8.61,21 23.22,36.82 42.000004,48.999995 9.06,5.87 18.27,11.51 27.27,17.46 9.82,6.5 18.52,14.24 25,24.19 a 82,82 0 0 1 11.57,29.64 c 2.57,13.23 2.75,26.57 2.08,40 a 342.56,342.56 0 0 1 -3.77,34.12 3.31,3.31 0 0 1 -0.19,0.61 z"
         id="path1684" />
      <path
         d="m 258.00794,118.99537 c -30.51,6.83 -34,13.36 -34,13.36 0,0 11.21,-0.74 16.76,0.59 -1.85,0.38 -3.71,0.75 -5.56,1.15 a 57.73,57.73 0 0 0 -16.24,5.56 25.19,25.19 0 0 0 -10,10.57 c 9.58,-5.79 22.25,-5.46 22.25,-5.46 0,0 -27,14.62 -35.21,28 -6.87,11.2 -11.21,23.46 -14.83,36 -0.7,2.46 -1.36,4.93 -2.21,7.41 0,-0.5 -0.07,-1 -0.07,-1.5 0,-8.17 0.13,-16.35 0,-24.52 -0.2,-10.42 -0.88,-20.84 -4.32,-30.79 -1.35,-3.89 -3.51,-7.5 -5.3,-11.24 a 4.22,4.22 0 0 1 -0.61,-1.47 c -0.29,-6.65 0.9,-12.93 5.38,-18.13 2.65,-3.07 5.92,-5.07 10.25,-4.25 a 8.65,8.65 0 0 1 5.72,4.09 c 2.07,3.14 2.84,6.68 3.09,10.71 -0.57,-0.54 -0.91,-0.87 -1.26,-1.18 -2.21,-2 -4.35,-1.81 -5.92,0.7 a 15.47,15.47 0 0 0 -2.09,11.82 c 0.61,2.79 2.67,3.38 4.66,1.35 3,-3.08 6,-6.26 8.92,-9.46 5.71,-6.26 11.69,-12.19 19.27,-16.23 a 62.36,62.36 0 0 1 25.8,-7 c 5.1,-0.32 15.61,-0.06 15.61,-0.06"
         id="path1686" />
      <path
         d="m 160.30794,86.385375 c 0.85,9.62 6,16.669995 12.93,22.769995 a 51.08,51.08 0 0 1 5.38,5.53 8.64,8.64 0 0 1 1.67,8.28 22.74,22.74 0 0 1 -15.31,-9.22 c -6.19,-8.27 -7.45,-17.499995 -4.72,-27.349995"
         id="path1688" />
    </g>
  </g>
  <metadata
     id="metadata1953">
    <rdf:RDF>
      <cc:Work
         rdf:about="">
        <dc:title>Final-Social Media KitSocial media profile</dc:title>
      </cc:Work>
    </rdf:RDF>
  </metadata>
</svg>
